HIERARCHY
ROOT Model_Hips
{
	OFFSET 0.000000 96.915077 0.000000
	CHANNELS 6 Xposition Yposition Zposition Xrotation Yrotation Zrotation
	JOINT Model_Spine
	{
		OFFSET 0.000000 11.137703 -1.289900
		CHANNELS 3 Xrotation Yrotation Zrotation
		JOINT Model_Spine1
		{
			OFFSET 0.000000 12.993942 -1.504922
			CHANNELS 3 Xrotation Yrotation Zrotation
			JOINT Model_Spine2
			{
				OFFSET 0.000000 14.850220 -1.719911
				CHANNELS 3 Xrotation Yrotation Zrotation
				JOINT Model_Neck
				{
					OFFSET 0.000000 16.706543 -1.934903
					CHANNELS 3 Xrotation Yrotation Zrotation
					JOINT Model_Head
					{
						OFFSET 0.000000 10.471298 2.002100
						CHANNELS 3 Xrotation Yrotation Zrotation
						JOINT Model_HeadTop_End
						{
							OFFSET 0.000000 20.842606 3.985100
							CHANNELS 3 Xrotation Yrotation Zrotation
							End Site
							{
								OFFSET 0.000000 21.220154 0.000000
							}
						}
					}
				}
				JOINT Model_LeftShoulder
				{
					OFFSET 7.008500 14.768600 -1.919946
					CHANNELS 3 Xrotation Yrotation Zrotation
					JOINT Model_LeftArm
					{
						OFFSET 14.126271 -3.718048 0.029937
						CHANNELS 3 Xrotation Yrotation Zrotation
						JOINT Model_LeftForeArm
						{
							OFFSET 28.282801 0.000000 0.000000
							CHANNELS 3 Xrotation Yrotation Zrotation
							JOINT Model_LeftHand
							{
								OFFSET 26.204689 0.000000 0.000000
								CHANNELS 3 Xrotation Yrotation Zrotation
								End Site
								{
									OFFSET 26.204704 0.000000 0.000000
								}
							}
						}
					}
				}
				JOINT Model_RightShoulder
				{
					OFFSET -7.008500 14.768555 -1.949840
					CHANNELS 3 Xrotation Yrotation Zrotation
					JOINT Model_RightArm
					{
						OFFSET -14.126281 -3.718018 -0.029932
						CHANNELS 3 Xrotation Yrotation Zrotation
						JOINT Model_RightForeArm
						{
							OFFSET -28.283798 0.000000 -0.000001
							CHANNELS 3 Xrotation Yrotation Zrotation
							JOINT Model_RightHand
							{
								OFFSET -26.204193 0.000000 -0.000001
								CHANNELS 3 Xrotation Yrotation Zrotation
								End Site
								{
									OFFSET -26.204208 0.000000 -0.000001
								}
							}
						}
					}
				}
			}
		}
	}
	JOINT Model_LeftUpLeg
	{
		OFFSET 8.327700 -6.193199 -0.402800
		CHANNELS 3 Xrotation Yrotation Zrotation
		JOINT Model_LeftLeg
		{
			OFFSET 0.735802 -42.108742 -0.610721
			CHANNELS 3 Xrotation Yrotation Zrotation
			JOINT Model_LeftFoot
			{
				OFFSET -0.735806 -36.833748 -0.172876
				CHANNELS 3 Xrotation Yrotation Zrotation
				JOINT Model_LeftToeBase
				{
					OFFSET -0.565857 -11.977769 16.297714
					CHANNELS 3 Xrotation Yrotation Zrotation
					JOINT Model_LeftToe_End
					{
						OFFSET -0.111712 -0.312793 7.857784
						CHANNELS 3 Xrotation Yrotation Zrotation
						End Site
						{
							OFFSET -0.111712 -0.312793 7.857784
						}
					}
				}
			}
		}
	}
	JOINT Model_RightUpLeg
	{
		OFFSET -8.327700 -6.193199 -0.516500
		CHANNELS 3 Xrotation Yrotation Zrotation
		JOINT Model_RightLeg
		{
			OFFSET -0.735785 -42.108738 -0.434061
			CHANNELS 3 Xrotation Yrotation Zrotation
			JOINT Model_RightFoot
			{
				OFFSET 0.735776 -36.833748 -0.021630
				CHANNELS 3 Xrotation Yrotation Zrotation
				JOINT Model_RightToeBase
				{
					OFFSET 0.565817 -11.977745 15.903093
					CHANNELS 3 Xrotation Yrotation Zrotation
					JOINT Model_RightToe_End
					{
						OFFSET 0.111702 -0.312791 7.811342
						CHANNELS 3 Xrotation Yrotation Zrotation
						End Site
						{
							OFFSET 0.111702 -0.312791 7.811342
						}
					}
				}
			}
		}
	}
}
MOTION
Frames: 7
Frame Time: 0.016667
196.524734 94.870560 -0.353013 -177.559742 -0.029904 176.278822 1.721338 0.070388 0.599585 3.446061 0.185904 0.712667 3.446060 0.185904 0.712666 -0.272396 -0.519576 1.270702 -0.272390 -0.519576 1.270703 -0.000000 -0.000000 0.000000 0.578254 -9.717387 -9.762127 -1.539217 -9.338516 -71.362499 31.607585 -5.086949 3.641917 0.000004 -0.000000 0.000000 0.629018 2.929857 20.347309 -7.009348 19.459163 54.066292 24.200064 6.400555 -3.312638 -0.000000 0.000001 -0.000002 -22.604431 5.084309 3.063598 61.330202 11.447979 0.877192 -8.276358 -0.574817 5.462232 -15.696000 2.578405 -9.795494 -0.000001 0.000001 0.000001 -7.096827 -3.501839 7.236378 25.269699 -10.305242 -0.162684 -15.957282 -0.076816 -1.113998 -0.157724 -0.005653 0.007880 0.000000 0.000001 0.000000 
196.591202 94.953316 -1.595475 -177.821175 -0.023299 176.875644 1.698641 0.247061 0.509019 3.400668 0.521903 0.591534 3.400669 0.521903 0.591535 -0.295831 -0.529788 1.112396 -0.295831 -0.529787 1.112395 -0.000000 0.000000 0.000000 0.557912 -9.130582 -10.246118 -0.215855 -8.019288 -71.421663 31.562871 -5.003006 3.596338 -0.000003 -0.000000 -0.000000 0.578206 3.535001 19.652577 -8.096290 20.771522 53.670001 22.845564 7.627600 -3.562692 -0.000003 0.000000 -0.000000 -23.696967 5.009751 2.046169 57.661147 12.215900 0.874127 -8.569977 -0.516108 5.327559 -14.364023 2.139906 -8.906299 -0.000000 -0.000000 0.000000 -6.311627 -3.610603 6.663875 24.831588 -9.854330 -0.144002 -16.580431 -0.070610 -1.083144 -0.115227 -0.006035 0.007060 0.000000 0.000001 0.000000 
196.658844 95.032379 -2.824867 -178.082880 -0.016613 177.430556 1.681993 0.406403 0.426648 3.367272 0.827525 0.486062 3.367274 0.827526 0.486062 -0.318031 -0.543477 0.963392 -0.318022 -0.543477 0.963392 -0.000001 -0.000000 -0.000000 0.543735 -8.577601 -10.673187 1.267068 -6.677852 -71.524887 30.966326 -5.245335 3.661110 -0.000002 -0.000000 -0.000000 0.538478 4.070686 19.064139 -9.165203 21.921704 53.130529 21.642067 8.675202 -3.741854 -0.000001 -0.000001 -0.000000 -24.588763 4.906415 0.926035 53.604592 13.079729 0.841817 -8.638537 -0.490811 5.223622 -11.643786 1.551642 -7.883141 0.000000 0.000002 -0.000000 -5.477623 -3.728979 6.088495 24.341146 -9.514914 -0.126335 -17.189110 -0.049845 -1.046210 -0.045629 -0.003144 -0.002819 -0.000000 0.000001 0.000000 
196.726974 95.107651 -4.048289 -178.349066 -0.012264 177.940143 1.667999 0.552623 0.353929 3.339112 1.111059 0.396078 3.339111 1.111059 0.396079 -0.338614 -0.562608 0.829235 -0.338601 -0.562606 0.829236 0.000000 -0.000000 -0.000000 0.534412 -8.081293 -11.034726 2.860655 -5.405140 -71.651854 30.014150 -5.727070 3.799747 -0.000003 -0.000000 -0.000000 0.507359 4.524328 18.594944 -10.186732 22.953358 52.469739 20.533417 9.585461 -3.865172 0.000003 -0.000001 0.000001 -25.322115 4.732591 -0.225186 49.060689 13.849507 0.789961 -8.120679 -0.509316 5.390317 -8.197043 0.978037 -6.801986 0.000001 0.000002 -0.000000 -4.561465 -3.815075 5.558972 23.681893 -9.296485 -0.115932 -17.718515 -0.028222 -0.967161 -0.000064 0.001918 0.000000 0.000000 0.000000 0.000000 
196.792236 95.176880 -5.271013 -178.624542 -0.013272 178.383231 1.652796 0.689914 0.292496 3.308454 1.380633 0.322861 3.308452 1.380634 0.322860 -0.356342 -0.587630 0.712528 -0.356345 -0.587630 0.712528 0.000000 -0.000000 -0.000000 0.528694 -7.652854 -11.330778 4.508493 -4.259573 -71.780002 28.931752 -6.350725 3.974669 -0.000002 -0.000000 0.000000 0.482880 4.895751 18.236206 -11.129446 23.904947 51.723752 19.479414 10.426368 -3.949553 0.000003 0.000001 0.000001 -25.835831 4.466354 -1.308477 43.724361 14.305060 0.740272 -6.351293 -0.548479 5.954741 -6.089524 0.600283 -5.129899 0.000000 0.000002 -0.000000 -3.565318 -3.856105 5.116351 22.826262 -9.176632 -0.114381 -18.143726 -0.012197 -0.871499 -0.004957 0.007047 -0.005353 -0.000000 -0.000001 0.000000 
196.851639 95.238251 -6.501857 -178.912229 -0.025598 178.745286 1.632653 0.820386 0.242844 3.267833 1.640220 0.267790 3.267836 1.640221 0.267790 -0.369507 -0.618670 0.615139 -0.369506 -0.618671 0.615139 -0.000000 -0.000000 0.000000 0.525695 -7.295183 -11.562889 6.158818 -3.252952 -71.898307 27.908658 -7.021719 4.157782 -0.000003 -0.000000 -0.000000 0.463812 5.191984 17.969606 -11.971925 24.791343 50.935220 18.466685 11.255326 -4.008608 0.000003 -0.000000 0.000001 -26.016790 4.119973 -2.253664 37.439354 14.338872 0.729886 -3.246015 -0.549952 6.823808 -4.442948 0.372885 -3.798386 0.000000 -0.000001 -0.000000 -2.486541 -3.863283 4.779088 21.762776 -9.111060 -0.120217 -18.448922 -0.006115 -0.780547 -0.122534 0.010088 -0.030192 -0.000000 0.000002 0.000000 
196.902695 95.289688 -7.751880 -179.211023 -0.057262 179.021840 1.604681 0.943297 0.204203 3.211406 1.888171 0.231140 3.211408 1.888172 0.231140 -0.375633 -0.654269 0.537106 -0.375641 -0.654266 0.537106 -0.000000 -0.000000 -0.000000 0.524822 -7.006218 -11.731227 7.768585 -2.355450 -72.013376 27.060885 -7.658703 4.330105 -0.000001 0.000000 0.000000 0.449367 5.422603 17.776775 -12.710518 25.599766 50.149581 17.505356 12.098974 -4.051053 -0.000002 0.000003 -0.000001 -25.949504 3.750812 -3.047407 30.844964 13.945219 0.776370 -0.233294 -0.502819 7.698102 -1.226785 0.098504 -1.004181 0.000000 0.000000 -0.000000 -1.647065 -3.889571 4.520584 21.140332 -9.066438 -0.121759 -18.702984 -0.015425 -0.687418 -0.518647 0.009673 0.012684 0.000000 0.000001 0.000000 
